<svg width="54" height="53" viewBox="0 0 54 53" fill="none" xmlns="http://www.w3.org/2000/svg">
<path d="M24.609 30.238L21.8997 26.9636C18.1166 29.8907 14.4458 32.4705 12.6104 33.3387L10.1008 34.5169L16.7431 42.3927L20.0144 39.6641L16.7806 35.844C18.9406 34.4797 21.7623 32.4457 24.609 30.238Z" fill="#00ABA7"/>
<path d="M41.2398 30.4364L37.5815 34.5293C34.7723 32.6565 31.7882 29.7667 29.0664 26.7032C32.3001 24.0366 35.1344 21.5064 36.4953 19.9684C38.3307 17.8972 40.1036 14.5732 39.5667 11.4353C39.2296 9.47565 38.0685 7.88809 36.1956 6.82145C34.0981 5.64318 31.9131 6.11449 30.1776 7.05711C29.5283 5.80442 28.6044 4.4029 27.3683 3.46029C24.6839 1.40142 21.3628 1.2898 18.6909 3.18743C15.3448 5.55636 14.0088 10.1702 15.4446 14.412C16.2187 16.7065 19.1778 21.3079 22.7362 25.7978L25.7202 29.3946L25.7327 29.3822C28.7043 32.7433 32.8495 36.8735 36.9448 39.1308L38.443 39.9494L44.4236 33.2518L41.2398 30.4364ZM26.3196 23.4412C22.7612 19.001 20.0518 14.7344 19.4775 13.0477C18.5411 10.2818 19.6148 7.72686 21.1505 6.62301C21.575 6.32534 22.1369 6.05248 22.8111 6.05248C23.3855 6.05248 24.0472 6.25092 24.7464 6.79665C25.8701 7.65244 26.8439 9.82293 27.206 10.9888L28.2548 14.536L30.7894 11.8446C31.2139 11.4105 32.9993 9.89735 34.0606 10.5051C35.047 11.0632 35.2592 11.6958 35.3341 12.1299C35.5589 13.4694 34.7098 15.5406 33.2615 17.1654C32.0504 18.5421 29.391 20.911 26.3196 23.4412Z" fill="#00ABA7"/>
<path d="M38.2142 6H40.4118C41.4284 6 42.025 5.55562 42.025 4.82512V4.81294C42.025 4.23464 41.6962 3.94244 41.1788 3.77199C41.5562 3.60763 41.8363 3.31543 41.8363 2.82234V2.81017C41.8363 2.51797 41.7328 2.29273 41.5623 2.12229C41.3127 1.8727 40.9353 1.73878 40.3996 1.73878H38.2142V6ZM39.3647 3.43718V2.68842H40.1318C40.4848 2.68842 40.6675 2.82234 40.6675 3.05367V3.06584C40.6675 3.31543 40.4666 3.43718 40.1074 3.43718H39.3647ZM39.3647 5.05036V4.26507H40.2657C40.6614 4.26507 40.844 4.41726 40.844 4.64858V4.66076C40.844 4.91034 40.637 5.05036 40.2779 5.05036H39.3647ZM42.5901 6H43.7772V1.73878H42.5901V6ZM44.4234 6H48.1915V5.00166H46.0548L48.1915 2.59711V1.73878H44.4964V2.73712H46.5601L44.4234 5.14167V6Z" fill="#00ABA7"/>
</svg>
