<svg width="147" height="144" viewBox="0 0 147 144" fill="none" xmlns="http://www.w3.org/2000/svg">
<path d="M66.9912 82.3146L59.6157 73.4011C49.3172 81.3692 39.3246 88.392 34.3283 90.7554L27.4966 93.9629L45.5785 115.403L54.4835 107.975L45.6805 97.5756C51.5605 93.8616 59.2418 88.3245 66.9912 82.3146Z" fill="#00ABA7"/>
<path d="M112.264 82.8548L102.305 93.9967C94.6578 88.8984 86.5346 81.0316 79.1251 72.6921C87.9281 65.433 95.6435 58.5453 99.3482 54.3587C104.345 48.7202 109.171 39.6717 107.709 31.1296C106.792 25.795 103.631 21.4733 98.5325 18.5697C92.8224 15.3622 86.8745 16.6452 82.1501 19.2112C80.3827 15.8011 77.8675 11.9859 74.5027 9.41985C67.1951 3.81516 58.1542 3.51129 50.8807 8.67706C41.7718 15.1258 38.135 27.6857 42.0437 39.2328C44.151 45.479 52.2062 58.0051 61.893 70.2274L70.0162 80.0187L70.0502 79.985C78.1394 89.1348 89.4236 100.378 100.572 106.523L104.65 108.751L120.931 90.5191L112.264 82.8548ZM71.6476 63.8124C61.9609 51.7252 54.5854 40.1106 53.022 35.5188C50.4728 27.9896 53.3958 21.0344 57.5764 18.0295C58.732 17.2192 60.2615 16.4764 62.0969 16.4764C63.6603 16.4764 65.4617 17.0166 67.3651 18.5022C70.424 20.8318 73.0751 26.7404 74.0608 29.9141L76.9158 39.5704L83.8155 32.2438C84.9711 31.0621 89.8315 26.943 92.7205 28.5974C95.4056 30.1167 95.9834 31.8386 96.1873 33.0203C96.7991 36.6668 94.4879 42.3052 90.5452 46.7282C87.2483 50.4759 80.0088 56.9247 71.6476 63.8124Z" fill="#00ABA7"/>
<path d="M104.027 15H110.01C112.777 15 114.401 13.7903 114.401 11.8017V11.7686C114.401 10.1943 113.506 9.39886 112.098 8.93486C113.125 8.48743 113.887 7.692 113.887 6.34971V6.31657C113.887 5.52114 113.606 4.908 113.142 4.444C112.462 3.76457 111.435 3.4 109.977 3.4H104.027V15ZM107.159 8.02343V5.98514H109.247C110.209 5.98514 110.706 6.34971 110.706 6.97943V7.01257C110.706 7.692 110.159 8.02343 109.181 8.02343H107.159ZM107.159 12.4149V10.2771H109.612C110.689 10.2771 111.186 10.6914 111.186 11.3211V11.3543C111.186 12.0337 110.623 12.4149 109.645 12.4149H107.159ZM115.94 15H119.171V3.4H115.94V15ZM120.93 15H131.188V12.2823H125.371L131.188 5.73657V3.4H121.129V6.11771H126.747L120.93 12.6634V15Z" fill="#00ABA7"/>
</svg>
