<svg width="50" height="50" viewBox="0 0 50 50" fill="none" xmlns="http://www.w3.org/2000/svg">
<path d="M37.6357 13H11.4622C10.5443 13.001 9.66427 13.3661 9.01521 14.0152C8.36615 14.6643 8.00104 15.5443 8 16.4622V33.5378C8.00104 34.4557 8.36615 35.3357 9.01521 35.9848C9.66427 36.6339 10.5443 36.999 11.4622 37H37.6356C38.5536 36.999 39.4336 36.6339 40.0826 35.9848C40.7317 35.3357 41.0968 34.4557 41.0978 33.5378V16.4622C41.0968 15.5443 40.7318 14.6643 40.0827 14.0152C39.4336 13.3661 38.5536 13.001 37.6357 13ZM31.4799 24.9953L39.713 18.5336V32.9874L31.4799 24.9953ZM11.4622 14.3849H37.6356C38.1864 14.3855 38.7144 14.6046 39.1038 14.994C39.4933 15.3834 39.7123 15.9115 39.713 16.4622V16.7731L26.3897 27.2302C25.9026 27.6105 25.3022 27.8168 24.6842 27.8163C24.0663 27.8158 23.4662 27.6085 22.9797 27.2274L9.38488 16.7705V16.4622C9.3855 15.9115 9.60457 15.3834 9.994 14.994C10.3834 14.6046 10.9115 14.3855 11.4622 14.3849ZM17.863 25.0388L9.38488 33.0153V18.5176L17.863 25.0388ZM37.6357 35.6151H11.4622C11.1076 35.6149 10.7589 35.5239 10.4493 35.3509C10.1398 35.1778 9.87972 34.9283 9.69385 34.6263L18.9749 25.8946L22.1312 28.3223C22.8611 28.8925 23.7608 29.2021 24.6871 29.2019C25.6133 29.2016 26.5129 28.8916 27.2425 28.321L30.3806 25.8586L39.4076 34.6208C39.2221 34.9243 38.9617 35.1752 38.6515 35.3493C38.3412 35.5234 37.9915 35.6149 37.6357 35.6151Z" fill="#00ABA7"/>
</svg>
