<svg width="50" height="50" viewBox="0 0 50 50" fill="none" xmlns="http://www.w3.org/2000/svg">
<path d="M12.8083 9C10.7141 9 9 10.7141 9 12.8083V37.1815C9 39.2757 10.7141 40.9898 12.8083 40.9898H25.6286C25.7109 41.0034 25.7948 41.0034 25.8771 40.9898H30.1986C30.2809 41.0034 30.3648 41.0034 30.447 40.9898H37.1815C39.2757 40.9898 40.9898 39.2757 40.9898 37.1815V12.8083C40.9898 10.7141 39.2757 9 37.1815 9H12.8083ZM12.8083 10.5233H37.1815C38.4523 10.5233 39.4665 11.5375 39.4665 12.8083V37.1815C39.4665 38.4523 38.4523 39.4665 37.1815 39.4665H31.0882V28.8032H33.998L35.0646 23.4716H31.0882V21.9483C31.0882 21.5236 31.1286 21.4904 31.2712 21.3978C31.4137 21.3052 31.8543 21.1866 32.6115 21.1866H34.8965V16.8978L34.4621 16.691C34.4621 16.691 32.7126 15.855 30.3265 15.855C28.6128 15.855 27.2049 16.5378 26.304 17.6639C25.4031 18.7901 24.9949 20.298 24.9949 21.9483V23.4716H22.7099V28.8032H24.9949V39.4665H12.8083C11.5375 39.4665 10.5233 38.4523 10.5233 37.1815V12.8083C10.5233 11.5375 11.5375 10.5233 12.8083 10.5233ZM30.3265 17.3783C31.9101 17.3783 32.9066 17.7275 33.3732 17.9123V19.6633H32.6115C31.735 19.6633 31.0326 19.7358 30.4411 20.12C29.8496 20.5042 29.5649 21.2334 29.5649 21.9483V24.9949H33.2051L32.7484 27.2799H29.5649V39.4665H26.5182V27.2799H24.2332V24.9949H26.5182V21.9483C26.5182 20.5519 26.8717 19.394 27.4941 18.616C28.1165 17.838 28.9936 17.3783 30.3265 17.3783Z" fill="#00ABA7"/>
</svg>
