<svg width="40" height="38" viewBox="0 0 40 38" fill="none" xmlns="http://www.w3.org/2000/svg">
<path fill-rule="evenodd" clip-rule="evenodd" d="M19.65 2.3C9.94424 2.3 2.3 9.31294 2.3 17.7026C2.3 22.1021 4.38111 26.0969 7.76981 28.9256L8.35184 29.4114L8.1347 30.1378C7.75081 31.422 7.13342 33.0072 6.23573 34.3442C6.07877 34.578 5.90906 34.8102 5.72613 35.0355C5.99121 35.026 6.26561 35.0122 6.54712 34.9933C9.12344 34.8203 12.0625 34.2288 14.0002 32.7434L14.4394 32.4067L14.9765 32.5398C16.4618 32.908 18.0289 33.1053 19.65 33.1053C29.3558 33.1053 37 26.0923 37 17.7026C37 9.31294 29.3558 2.3 19.65 2.3ZM0 17.7026C0 7.80879 8.92123 0 19.65 0C30.3788 0 39.3 7.80879 39.3 17.7026C39.3 27.5965 30.3788 35.4053 19.65 35.4053C18.0302 35.4053 16.4547 35.2286 14.9463 34.8949C12.4887 36.556 9.22657 37.1186 6.70124 37.2882C5.33206 37.3801 4.11899 37.36 3.26522 37.3132C2.83909 37.2899 2.49422 37.2595 2.25766 37.2315C2.14673 37.2184 2.03303 37.2027 1.94089 37.184C1.91616 37.179 1.88017 37.1712 1.83964 37.1602L1.83742 37.1596C1.81426 37.1533 1.70995 37.1251 1.5937 37.0643L1.59039 37.0626C1.54992 37.0416 1.34039 36.933 1.17676 36.6953C1.07551 36.5482 0.955305 36.2966 0.975978 35.9696C0.997019 35.6368 1.15316 35.3943 1.28845 35.2512C1.50103 35.0263 1.74487 34.9536 1.78926 34.9404C1.79073 34.94 1.79199 34.9396 1.79301 34.9393C1.87372 34.9148 1.94026 34.9043 1.97175 34.8998C2.79289 34.7828 3.59039 34.1581 4.32621 33.0621C4.90636 32.1981 5.3668 31.158 5.70591 30.1778C2.19722 26.9947 0 22.5918 0 17.7026Z" fill="#828282"/>
<path d="M19.3384 12.0066C20.2994 12.0066 20.9742 11.3114 20.9742 10.4117C20.9742 9.57334 20.279 8.93947 19.3384 8.93947C18.3978 8.93947 17.7026 9.61424 17.7026 10.473C17.7026 11.3318 18.3978 12.0066 19.3384 12.0066ZM18.0502 23.4469C18.0502 24.1527 18.6224 24.7248 19.3282 24.7248C20.034 24.7248 20.6062 24.1527 20.6062 23.4469V15.0839C20.6062 14.3781 20.034 13.8059 19.3282 13.8059C18.6224 13.8059 18.0502 14.3781 18.0502 15.0839V23.4469Z" fill="#828282"/>
</svg>
