<svg width="41" height="38" viewBox="0 0 41 38" fill="none" xmlns="http://www.w3.org/2000/svg">
<path d="M33.2932 17.8959C32.6546 17.8959 32.1391 18.4114 32.1391 19.05V35.6918H25.53V25.7437H15.2587V35.6918H8.6497V19.05C8.6497 18.4114 8.13421 17.8959 7.49562 17.8959C6.85703 17.8959 6.34154 18.4114 6.34154 19.05V38H17.5669V28.0518H23.2219V38H34.4472V19.05C34.4472 18.4114 33.924 17.8959 33.2932 17.8959Z" fill="#828282"/>
<path d="M40.3869 17.4343L20.3905 0L0.394139 17.4343C-0.0828804 17.8498 -0.136737 18.5807 0.286425 19.0654C0.709588 19.5501 1.43281 19.5963 1.91752 19.1731L20.3905 3.06216L38.8635 19.1731C39.0789 19.3655 39.3559 19.4578 39.6252 19.4578C39.9483 19.4578 40.2637 19.327 40.4946 19.0654C40.9177 18.5884 40.8639 17.8575 40.3869 17.4343Z" fill="#828282"/>
<path d="M27.4457 3.03905H32.1313V7.08602C32.1313 7.72461 32.6468 8.2401 33.2854 8.2401C33.924 8.2401 34.4394 7.72461 34.4394 7.08602V0.730888H27.4457C26.8071 0.730888 26.2916 1.24638 26.2916 1.88497C26.2916 2.52356 26.8148 3.03905 27.4457 3.03905Z" fill="#828282"/>
</svg>
