<svg width="33" height="39" viewBox="0 0 33 39" fill="none" xmlns="http://www.w3.org/2000/svg">
<path d="M28.7 25.7L25.4 29.4C23.5 28 21.4 26 19.5 23.9C22 21.8 24.2 19.8 25.3 18.5C27 16.6 28.7 13.4 28.2 10.2C27.9 8.20004 26.6 6.50004 24.8 5.50004C22.9 4.50004 21 4.70004 19.5 5.30004C18.9 4.40004 18.2 3.40004 17.2 2.60004C14.5 0.500039 11.2 0.400039 8.5 2.30004C5.2 4.70004 3.9 9.20004 5.3 13.3C5.7 14.4 6.5 16 7.7 17.8C8.7 19.4 10.1 21.3 11.5 23.1L11.3 23.3C9.6 24.6 8 25.8 6.6 26.8C5.2 27.8 4.1 28.5 3.3 28.8L0 30.4L7.2 39L11.5 35.4L8.7 32.1C10.5 30.9 12.6 29.4 14.7 27.7L14.9 27.5L15 27.6C16.3 29 17.8 30.5 19.4 32C21 33.4 22.7 34.7 24.4 35.7L26.4 36.8L32.8 29.6L28.7 25.7ZM6.9 31.1L6 31.7L8.9 35.2L7.5 36.4L3.1 31L4.2 30.5C5.8 29.7 8.7 27.7 11.8 25.3L12.9 26.7C10.6 28.5 8.5 30 6.9 31.1ZM26.1 34.3L25.5 33.9C22.1 32 18.6 28.5 16 25.5L15.5 25L13.4 22.4C11.9 20.4 10.5 18.5 9.4 16.7C8.3 15 7.5 13.5 7.2 12.6C6.8 11.8 6.7 10.9 6.7 10C6.7 7.60004 7.8 5.30004 9.6 4.00004C11.6 2.60004 14 2.70004 16 4.20004C17 4.90004 17.7 6.00004 18.2 7.00004L18.7 7.90004L19.6 7.40004C20.9 6.70004 22.5 6.40004 23.9 7.20004C25.3 8.00004 26.1 9.20004 26.4 10.6C26.8 12.9 25.5 15.6 23.9 17.3C22.8 18.6 20.4 20.8 17.5 23.1L16.7 23.7L17.4 24.4C19.8 27.1 22.5 29.7 25 31.5L25.7 32L28.8 28.5L30.1 29.7L26.1 34.3Z" fill="#828282"/>
<path d="M22.5001 16.1C23.2001 15.3 23.8001 14.4 24.1001 13.5C24.5001 12.6 24.7001 11.7 24.5001 10.8C24.5001 10.5 24.3001 10.2 24.1001 9.79995C23.9001 9.39995 23.5001 8.99995 23.0001 8.69995C22.5001 8.39995 22.0001 8.39995 21.6001 8.49995C21.2001 8.59995 20.8001 8.79995 20.4001 8.99995C19.7001 9.39995 19.2001 9.89995 19.0001 10.1L17.9001 11.2L17.5001 9.69995C17.3001 9.09995 17.0001 8.29995 16.6001 7.59995C16.2001 6.89995 15.7001 6.09995 15.0001 5.59995C14.2001 4.99995 13.5001 4.69995 12.7001 4.69995C11.9001 4.69995 11.2001 4.99995 10.7001 5.39995C9.00005 6.59995 7.90005 9.29995 8.90005 12.1C9.20005 13 10.0001 14.4 11.0001 16C12.1001 17.6 13.5001 19.6 15.0001 21.5L15.6001 22.2999L16.4001 21.7C19.0001 19.5 21.4001 17.4 22.5001 16.1ZM15.9001 19.6C14.6001 17.9 13.5001 16.3 12.6001 15C11.6001 13.4 10.9001 12.2 10.7001 11.5C10.0001 9.49995 10.8001 7.69995 11.8001 6.99995C12.1001 6.79995 12.4001 6.69995 12.7001 6.69995C13.0001 6.69995 13.3001 6.79995 13.8001 7.09995C14.1001 7.29995 14.5001 7.89995 14.9001 8.49995C15.2001 9.09995 15.5001 9.79995 15.7001 10.3L17.0001 15L20.4001 11.4C20.5001 11.3 20.9001 10.9 21.4001 10.6C21.6001 10.5 21.8001 10.4 22.0001 10.4C22.1001 10.4 22.1001 10.4 22.1001 10.4C22.4001 10.6 22.5001 10.7 22.6001 10.8C22.7001 10.9 22.7001 11 22.7001 11.1C22.8001 11.4 22.7001 12 22.4001 12.7C22.1001 13.4 21.7001 14.1 21.1001 14.7C20.2001 15.8 18.2001 17.6 15.9001 19.6Z" fill="#828282"/>
</svg>
