<svg width="22" height="22" viewBox="0 0 22 22" fill="none" xmlns="http://www.w3.org/2000/svg">
<path d="M22 21.1834C22 21.6581 21.6153 22.0428 21.1407 22.0428H0.859583C0.384913 22.0428 0.00020815 21.6581 0.00020815 21.1834C0.00020815 20.7088 0.384913 20.3241 0.859583 20.3241H10.1524L10.1422 16.645L7.78964 15.4688L5.71371 17.5445C5.43911 17.8191 5.00943 17.8784 4.66836 17.6764L0.421839 15.1626C0.0133003 14.9207 -0.121816 14.3937 0.120051 13.9853C0.36175 13.577 0.888957 13.4418 1.29733 13.6835L4.96998 15.8578L6.93748 13.8902L9.07333 10.3337L7.51017 8.77302L5.5603 10.0686C5.16519 10.3313 4.63177 10.2237 4.36909 9.82843C4.10641 9.43316 4.21383 8.89974 4.60911 8.63706L7.14427 6.95255C7.48483 6.72629 7.93768 6.77127 8.22705 7.06014L12.8017 11.6272L14.7482 10.3281C15.143 10.0646 15.6766 10.1712 15.9401 10.566C16.2036 10.9607 16.0972 11.4943 15.7024 11.7578L13.1701 13.4479C12.8282 13.676 12.3747 13.6297 12.0858 13.3413L10.3266 11.5851L8.83465 14.0698L11.3844 15.3446C11.6748 15.4897 11.8586 15.7863 11.8594 16.1109L11.8712 20.3242H16.9012V1.76172H5.09906V5.97551C5.09906 6.45018 4.71435 6.83489 4.23968 6.83489C3.76518 6.83489 3.38031 6.45018 3.38031 5.97551V0.902344C3.38031 0.427674 3.76518 0.0429688 4.23968 0.0429688H17.7606C18.2351 0.0429688 18.62 0.427674 18.62 0.902344V20.3241H21.1407C21.6153 20.3241 22 20.7088 22 21.1834ZM12.6929 8.52762C11.2857 8.52762 10.1408 7.38274 10.1408 5.97534C10.1408 4.56812 11.2857 3.42323 12.6929 3.42323C14.1003 3.42323 15.2452 4.56812 15.2452 5.97534C15.2452 7.38274 14.1003 8.52762 12.6929 8.52762ZM12.6929 6.80887C13.1527 6.80887 13.5265 6.43508 13.5265 5.97534C13.5265 5.51578 13.1527 5.14199 12.6929 5.14199C12.2334 5.14199 11.8596 5.51578 11.8596 5.97534C11.8596 6.43508 12.2334 6.80887 12.6929 6.80887Z" fill="white"/>
</svg>
