<svg width="32" height="38" viewBox="0 0 32 38" fill="none" xmlns="http://www.w3.org/2000/svg">
<path d="M14.3658 16.4475C9.82127 16.4475 6.13111 12.7551 6.13111 8.22377C6.13111 3.69245 9.82845 0 14.3658 0C18.9103 0 22.6004 3.69245 22.6004 8.22377C22.6004 12.7551 18.9103 16.4475 14.3658 16.4475ZM14.3658 2.15094C11.013 2.15094 8.2849 4.87547 8.2849 8.22377C8.2849 11.5721 11.013 14.2966 14.3658 14.2966C17.7185 14.2966 20.4467 11.5721 20.4467 8.22377C20.4467 4.87547 17.7185 2.15094 14.3658 2.15094Z" fill="#828282"/>
<path d="M23.3687 38H3.84093C1.72303 38 0 36.3366 0 34.2932V27.6826C0 22.8932 4.06349 19 9.06747 19H17.2303C17.8262 19 18.3072 19.4804 18.3072 20.0755C18.3072 20.6706 17.8262 21.1509 17.2303 21.1509H9.06747C5.25525 21.1509 2.15379 24.0834 2.15379 27.6826V34.2932C2.15379 35.1536 2.90762 35.8491 3.84093 35.8491H23.3687C24.2948 35.8491 25.0558 35.1536 25.0558 34.2932C25.0558 33.6981 25.5368 33.2177 26.1327 33.2177C26.7286 33.2177 27.2096 33.6981 27.2096 34.2932C27.2096 36.3366 25.4865 38 23.3687 38Z" fill="#828282"/>
<path d="M24.9194 32.1136L19.7144 26.9155C18.0703 25.2736 18.0703 22.5992 19.7144 20.9574C20.5113 20.1615 21.5738 19.7242 22.701 19.7242C23.4979 19.7242 24.2661 19.9464 24.9265 20.3551C25.587 19.9464 26.3481 19.7242 27.1521 19.7242C28.2793 19.7242 29.3418 20.1615 30.1387 20.9574C31.7828 22.5992 31.7828 25.2736 30.1387 26.9155L24.9194 32.1136ZM22.701 21.8679C22.1482 21.8679 21.6312 22.083 21.2364 22.4702C20.4323 23.2732 20.4323 24.5853 21.2364 25.3883L24.9194 29.0664L28.6024 25.3883C29.4064 24.5853 29.4064 23.2732 28.6024 22.4702C28.2147 22.083 27.6906 21.8679 27.1378 21.8679C26.585 21.8679 26.0681 22.083 25.6732 22.4702L24.9194 23.2302L24.1584 22.4702C23.7707 22.083 23.2538 21.8679 22.701 21.8679Z" fill="#828282"/>
</svg>
