<svg width="16" height="16" viewBox="0 0 16 16" fill="none" xmlns="http://www.w3.org/2000/svg">
<circle cx="8.00009" cy="8.00015" r="6.50646" stroke="#828282" stroke-width="1.23933"/>
<mask id="path-2-inside-1_167_346" fill="white">
<path d="M7.06442 0.935557C8.16065 0.790382 9.27561 0.902313 10.3211 1.26249C11.3666 1.62267 12.3139 2.22122 13.0881 3.01077C13.8623 3.80032 14.4422 4.75921 14.7818 5.81157C15.1213 6.86393 15.2114 7.98088 15.0447 9.07404C14.878 10.1672 14.4593 11.2066 13.8215 12.1099C13.1837 13.0133 12.3445 13.7558 11.3702 14.2788C10.3959 14.8018 9.31323 15.0908 8.20791 15.1231C7.10258 15.1554 6.00492 14.9299 5.00176 14.4647L5.52314 13.3405C6.35185 13.7249 7.25864 13.9111 8.17175 13.8844C9.08486 13.8578 9.97924 13.619 10.7841 13.1869C11.589 12.7549 12.2823 12.1415 12.8092 11.3952C13.336 10.649 13.682 9.79034 13.8196 8.88727C13.9573 7.98421 13.883 7.06149 13.6024 6.19213C13.3219 5.32277 12.8429 4.53063 12.2033 3.87838C11.5637 3.22613 10.7812 2.73167 9.91747 2.43412C9.05379 2.13657 8.13271 2.04411 7.22711 2.16404L7.06442 0.935557Z"/>
</mask>
<path d="M7.06442 0.935557C8.16065 0.790382 9.27561 0.902313 10.3211 1.26249C11.3666 1.62267 12.3139 2.22122 13.0881 3.01077C13.8623 3.80032 14.4422 4.75921 14.7818 5.81157C15.1213 6.86393 15.2114 7.98088 15.0447 9.07404C14.878 10.1672 14.4593 11.2066 13.8215 12.1099C13.1837 13.0133 12.3445 13.7558 11.3702 14.2788C10.3959 14.8018 9.31323 15.0908 8.20791 15.1231C7.10258 15.1554 6.00492 14.9299 5.00176 14.4647L5.52314 13.3405C6.35185 13.7249 7.25864 13.9111 8.17175 13.8844C9.08486 13.8578 9.97924 13.619 10.7841 13.1869C11.589 12.7549 12.2823 12.1415 12.8092 11.3952C13.336 10.649 13.682 9.79034 13.8196 8.88727C13.9573 7.98421 13.883 7.06149 13.6024 6.19213C13.3219 5.32277 12.8429 4.53063 12.2033 3.87838C11.5637 3.22613 10.7812 2.73167 9.91747 2.43412C9.05379 2.13657 8.13271 2.04411 7.22711 2.16404L7.06442 0.935557Z" stroke="#00ABA7" stroke-width="2.47865" mask="url(#path-2-inside-1_167_346)"/>
<path d="M10.4607 7.51862H8.37251V5.46411H7.66522V7.51862H5.57703V8.181H7.66522V10.2243H8.37251V8.181H10.4607V7.51862Z" fill="#00ABA7"/>
</svg>
