<svg width="38" height="38" viewBox="0 0 38 38" fill="none" xmlns="http://www.w3.org/2000/svg">
<g clip-path="url(#clip0_110_1195)">
<path d="M13.1593 17.0115C11.925 17.0115 10.9209 18.2231 10.9209 19.7123C10.9209 21.2015 11.925 22.4132 13.1593 22.4132C14.3935 22.4132 15.3976 21.2016 15.3976 19.7123C15.3976 18.223 14.3935 17.0115 13.1593 17.0115ZM13.1593 21.3001C12.5493 21.3001 12.034 20.5729 12.034 19.7123C12.034 18.8517 12.5493 18.1246 13.1593 18.1246C13.7692 18.1246 14.2845 18.8517 14.2845 19.7123C14.2845 20.5731 13.7692 21.3001 13.1593 21.3001Z" fill="url(#paint0_linear_110_1195)"/>
<path d="M24.8333 17.0115C23.5991 17.0115 22.595 18.2231 22.595 19.7123C22.595 21.2015 23.5991 22.4132 24.8333 22.4132C26.0676 22.4132 27.0717 21.2016 27.0717 19.7123C27.0717 18.223 26.0676 17.0115 24.8333 17.0115ZM24.8333 21.3C24.2234 21.3 23.7081 20.5729 23.7081 19.7122C23.7081 18.8517 24.2235 18.1245 24.8333 18.1245C25.4433 18.1245 25.9586 18.8517 25.9586 19.7122C25.9586 20.5729 25.4433 21.3 24.8333 21.3Z" fill="url(#paint1_linear_110_1195)"/>
<path d="M23.2799 27.8072C21.6237 24.1461 16.3888 24.1194 14.7129 27.8063C14.5857 28.0862 14.7094 28.4161 14.9893 28.5434C15.2691 28.6705 15.5991 28.5469 15.7264 28.2669C17.0082 25.443 21.0094 25.4886 22.2658 28.266C22.3588 28.4716 22.5612 28.5933 22.7733 28.5933C23.1727 28.5933 23.4479 28.1783 23.2799 27.8072Z" fill="url(#paint2_linear_110_1195)"/>
<path d="M28.2109 15.0723C27.0472 13.9594 25.5712 13.3633 24.0466 13.3947C23.7394 13.401 23.4953 13.6552 23.5016 13.9625C23.5078 14.2698 23.7593 14.5136 24.0694 14.5076C25.3385 14.4831 26.5242 14.9995 27.4415 15.8768C27.5493 15.9799 27.6878 16.0311 27.8261 16.0311C28.3228 16.0311 28.5755 15.421 28.2109 15.0723Z" fill="url(#paint3_linear_110_1195)"/>
<path d="M13.9458 13.3948C12.4213 13.3623 10.9451 13.9596 9.78153 15.0724C9.55939 15.2848 9.55145 15.6371 9.76401 15.8593C9.87334 15.9737 10.0197 16.0312 10.1663 16.0312C10.3045 16.0312 10.443 15.98 10.5509 15.8768C11.4769 14.9912 12.6393 14.5068 13.8331 14.5068C13.863 14.5068 13.8931 14.5071 13.923 14.5077C13.9269 14.5077 13.9307 14.5078 13.9346 14.5078C14.2367 14.5078 14.4846 14.266 14.4908 13.9626C14.4972 13.6552 14.2531 13.401 13.9458 13.3948Z" fill="url(#paint4_linear_110_1195)"/>
<path d="M13.2221 27.6272L12.9822 27.1473C12.8447 26.8723 12.5105 26.7607 12.2355 26.8983C11.9605 27.0358 11.8491 27.37 11.9865 27.6451L12.2177 28.1075C12.8303 29.6004 11.7215 31.2447 10.0917 31.2205C8.51793 31.1941 7.49423 29.5718 8.13815 28.1429L10.2676 24.2063L10.8192 25.31C10.9568 25.5848 11.2907 25.6963 11.566 25.559C11.841 25.4215 11.9524 25.0872 11.815 24.8122L11.2213 23.6246C11.0432 23.2681 10.6849 23.0427 10.2865 23.0363C10.2806 23.0361 10.2748 23.0361 10.269 23.0361C9.87739 23.0364 9.51996 23.2489 9.33315 23.5943C7.02115 27.8691 7.14822 27.6313 7.13374 27.6626C6.13194 29.8432 7.72475 32.3341 10.1307 32.3341C12.7125 32.334 14.2001 29.558 13.2221 27.6272Z" fill="url(#paint5_linear_110_1195)"/>
<path d="M35.4451 9.50208C29.9055 -0.0928665 17.3843 -2.93879 8.22241 3.35638C7.96903 3.5305 7.90483 3.87695 8.07879 4.13034C8.25284 4.38372 8.59937 4.44792 8.85275 4.27395C17.4886 -1.6597 29.2723 1.03689 34.4811 10.0587C38.7866 17.516 37.1165 26.8562 30.8474 32.3916C30.617 32.5951 30.5952 32.9468 30.7986 33.1772C31.0014 33.4069 31.353 33.4302 31.5842 33.2261C38.2411 27.3482 40.0213 17.4282 35.4451 9.50208Z" fill="url(#paint6_linear_110_1195)"/>
<path d="M29.6137 34.0814C29.4445 33.8246 29.0995 33.7536 28.8427 33.9226C28.5357 34.1248 28.2307 34.3134 27.9363 34.4834C23.7929 36.8756 18.9745 37.5037 14.3685 36.2697C0.732121 32.6157 -3.42777 15.3207 6.88175 5.8443C7.10812 5.63626 7.12296 5.28424 6.91485 5.05788C6.70682 4.83151 6.35479 4.81674 6.12843 5.02477C-4.82561 15.0936 -0.402908 33.4643 14.0805 37.3448C19.3638 38.7607 24.8857 37.8608 29.4548 34.8523C29.7116 34.6833 29.7827 34.338 29.6137 34.0814Z" fill="url(#paint7_linear_110_1195)"/>
</g>
<defs>
<linearGradient id="paint0_linear_110_1195" x1="13.1593" y1="17.0115" x2="13.1593" y2="22.4132" gradientUnits="userSpaceOnUse">
<stop stop-color="#5FD198"/>
<stop offset="1" stop-color="#00ABA7"/>
</linearGradient>
<linearGradient id="paint1_linear_110_1195" x1="24.8333" y1="17.0115" x2="24.8333" y2="22.4132" gradientUnits="userSpaceOnUse">
<stop stop-color="#5FD198"/>
<stop offset="1" stop-color="#00ABA7"/>
</linearGradient>
<linearGradient id="paint2_linear_110_1195" x1="18.9965" y1="25.0513" x2="18.9965" y2="28.5934" gradientUnits="userSpaceOnUse">
<stop stop-color="#5FD198"/>
<stop offset="1" stop-color="#00ABA7"/>
</linearGradient>
<linearGradient id="paint3_linear_110_1195" x1="25.9425" y1="13.3936" x2="25.9425" y2="16.0311" gradientUnits="userSpaceOnUse">
<stop stop-color="#5FD198"/>
<stop offset="1" stop-color="#00ABA7"/>
</linearGradient>
<linearGradient id="paint4_linear_110_1195" x1="12.0503" y1="13.3936" x2="12.0503" y2="16.0312" gradientUnits="userSpaceOnUse">
<stop stop-color="#5FD198"/>
<stop offset="1" stop-color="#00ABA7"/>
</linearGradient>
<linearGradient id="paint5_linear_110_1195" x1="10.1771" y1="23.0361" x2="10.1771" y2="32.3341" gradientUnits="userSpaceOnUse">
<stop stop-color="#5FD198"/>
<stop offset="1" stop-color="#00ABA7"/>
</linearGradient>
<linearGradient id="paint6_linear_110_1195" x1="22.9854" y1="0" x2="22.9854" y2="33.3655" gradientUnits="userSpaceOnUse">
<stop stop-color="#5FD198"/>
<stop offset="1" stop-color="#00ABA7"/>
</linearGradient>
<linearGradient id="paint7_linear_110_1195" x1="14.8578" y1="4.87793" x2="14.8578" y2="38.0001" gradientUnits="userSpaceOnUse">
<stop stop-color="#5FD198"/>
<stop offset="1" stop-color="#00ABA7"/>
</linearGradient>
<clipPath id="clip0_110_1195">
<rect width="38" height="38" fill="white"/>
</clipPath>
</defs>
</svg>
