<svg width="39" height="31" viewBox="0 0 39 31" fill="none" xmlns="http://www.w3.org/2000/svg">
<path d="M10.3855 0.0901732C10.31 0.0923453 10.2352 0.105566 10.1636 0.129415C8.79921 0.584206 7.44251 1.62497 6.25303 2.73746C6.11936 2.86248 5.9993 2.98892 5.87118 3.11478C5.78174 3.17246 5.70518 3.24799 5.6463 3.33664C4.73617 4.2568 3.98699 5.1693 3.56348 5.87526C1.14388 9.90794 0.372857 14.6457 0.372857 14.6457C0.355668 14.7487 0.359511 14.854 0.384153 14.9555C0.408796 15.0569 0.453728 15.1523 0.516239 15.2358C0.517955 15.2382 0.520558 15.2396 0.522276 15.2419C0.554404 15.2843 0.59082 15.3232 0.630945 15.3581C2.21065 17.4242 4.20811 19.136 6.50961 20.3508L24.1713 29.6752C25.6095 30.5852 27.3428 31.0003 28.9542 31.0003C28.9905 31.0004 29.0269 30.9978 29.0629 30.9928L34.4721 30.22L34.4268 30.2246C35.1789 30.1629 36.2301 29.965 37.1843 29.405C38.1385 28.845 39 27.8046 39 26.3638C39.0002 26.3391 38.9991 26.3144 38.997 26.2898C38.997 26.2898 38.9376 25.6726 38.8385 25.0054C38.7889 24.6719 38.7298 24.325 38.6574 24.0169C38.6212 23.8628 38.5814 23.7201 38.5306 23.5792C38.4798 23.4382 38.4465 23.3035 38.2665 23.1068C38.1778 23.0105 38.0662 22.9383 37.942 22.897L32.4633 21.0526L31.1638 19.7531L30.9072 19.0664L31.3736 18.8325C31.5308 18.7555 31.6573 18.6275 31.7323 18.4693C31.8073 18.3112 31.8263 18.1322 31.7864 17.9618C31.7464 17.7913 31.6497 17.6395 31.5122 17.5312C31.3747 17.4229 31.2045 17.3644 31.0294 17.3654C30.9081 17.3664 30.7887 17.3958 30.6808 17.4515L30.3608 17.6115L29.9548 16.5293L30.2371 16.4101C30.406 16.3415 30.5453 16.2154 30.6303 16.0541C30.7153 15.8928 30.7405 15.7067 30.7015 15.5286C30.6624 15.3504 30.5617 15.1919 30.4171 15.0809C30.2724 14.9698 30.0932 14.9135 29.9111 14.9219C29.8153 14.9261 29.7211 14.9481 29.6334 14.9868L29.4115 15.0804L28.9647 13.8881L29.1685 13.8141C29.3407 13.7546 29.4864 13.6361 29.5798 13.4796C29.6731 13.3231 29.7082 13.1387 29.6788 12.9588C29.6493 12.779 29.5573 12.6154 29.4189 12.4968C29.2805 12.3782 29.1047 12.3124 28.9225 12.3109C28.8271 12.3101 28.7325 12.327 28.6433 12.3607L28.4214 12.4406L27.9701 11.2393L28.2493 11.1381C28.4216 11.0786 28.5672 10.9601 28.6606 10.8037C28.754 10.6472 28.789 10.4627 28.7596 10.2829C28.7302 10.103 28.6381 9.93939 28.4998 9.82082C28.3614 9.70226 28.1856 9.6364 28.0033 9.63489C27.9075 9.63394 27.8123 9.65083 27.7226 9.6847L27.4283 9.79185L26.9649 8.55575C26.9672 8.50376 26.9641 8.45168 26.9559 8.40029C26.9559 8.40029 26.5905 6.09911 27.3362 3.54191C27.6429 2.49022 26.7103 1.54199 25.6821 1.65379C22.9455 1.94988 19.4215 3.22647 19.4215 3.22647C19.2382 3.29173 19.0862 3.42378 18.9959 3.59624L17.6813 6.11071C17.0012 6.25188 15.7915 6.14505 14.6733 5.72886C13.4037 5.25633 12.2683 4.41861 11.8751 3.61435C11.415 2.67319 11.1808 2.30308 11.1808 0.862927C11.1809 0.759517 11.1602 0.657152 11.1199 0.561895C11.0797 0.466639 11.0207 0.380428 10.9465 0.308369C10.8724 0.23631 10.7845 0.17987 10.6881 0.14239C10.5917 0.104911 10.4888 0.0871542 10.3855 0.0901732ZM9.78928 2.05979C9.9351 2.9324 10.1698 3.64559 10.4866 4.29353C11.1667 5.68467 12.6199 6.61404 14.1345 7.17777C14.4803 7.30646 14.8302 7.4129 15.1789 7.50227C14.9595 7.56586 14.74 7.62911 14.5209 7.67282C13.3688 7.90262 12.2548 7.87614 11.0269 7.29248C9.90344 6.75846 8.6615 5.71516 7.31255 3.86338C8.11801 3.11059 8.98695 2.50316 9.78928 2.05979ZM25.8405 3.19175C25.5162 4.33814 25.3877 5.42491 25.347 6.32956C24.502 5.8509 23.4415 5.6436 22.3873 5.55227C22.2249 5.53821 22.0637 5.54055 21.9013 5.53265C21.8438 5.51997 21.7851 5.51389 21.7262 5.51454C21.6926 5.51454 21.6602 5.52152 21.6266 5.52209C20.953 5.50363 20.2981 5.53548 19.6811 5.62019L20.2184 4.59388C20.6409 4.4482 23.6109 3.43484 25.8405 3.19175ZM6.21681 4.98629C7.61951 6.86391 8.99238 8.03644 10.3643 8.68857C11.9178 9.42697 13.4445 9.46304 14.8227 9.18814C17.5243 8.64929 19.7981 7.13128 21.613 7.07061C21.8278 7.07509 22.0435 7.07347 22.2545 7.09174C23.656 7.21315 24.8391 7.70259 25.1885 8.21767L25.9764 10.3171L25.35 10.5435C25.2546 10.5781 25.1669 10.6311 25.092 10.6996C25.017 10.7681 24.9563 10.8506 24.9133 10.9426C24.8703 11.0345 24.8458 11.134 24.8412 11.2354C24.8366 11.3368 24.8521 11.4381 24.8867 11.5336C24.9212 11.629 24.9743 11.7167 25.0428 11.7916C25.1112 11.8666 25.1938 11.9273 25.2857 11.9703C25.3777 12.0133 25.4772 12.0378 25.5786 12.0424C25.68 12.047 25.7813 12.0315 25.8768 11.9969L26.5182 11.7645L26.9695 12.9659L26.2707 13.2194C26.1736 13.2526 26.0841 13.3048 26.0074 13.373C25.9307 13.4412 25.8683 13.5239 25.8239 13.6164C25.7796 13.709 25.754 13.8094 25.7489 13.9119C25.7437 14.0144 25.759 14.1168 25.7939 14.2133C25.8288 14.3099 25.8825 14.3984 25.952 14.474C26.0215 14.5495 26.1053 14.6104 26.1986 14.6532C26.2918 14.6959 26.3927 14.7197 26.4953 14.7231C26.5978 14.7265 26.7 14.7094 26.7959 14.6729L27.5113 14.4133L27.9882 15.6856L27.4177 15.9271C27.3207 15.9642 27.2321 16.0204 27.1573 16.0925C27.0824 16.1645 27.0229 16.2509 26.9822 16.3465C26.9416 16.4421 26.9206 16.5449 26.9206 16.6488C26.9205 16.7527 26.9414 16.8555 26.982 16.9512C27.0226 17.0468 27.0821 17.1332 27.1569 17.2054C27.2317 17.2775 27.3202 17.3338 27.4172 17.3709C27.5142 17.408 27.6178 17.4252 27.7216 17.4214C27.8254 17.4176 27.9274 17.3929 28.0214 17.3488L28.5316 17.133L28.9723 18.3087L28.4139 18.5895C28.3232 18.635 28.2423 18.698 28.176 18.7749C28.1096 18.8517 28.059 18.9408 28.0271 19.0372C27.9952 19.1335 27.9826 19.2352 27.99 19.3365C27.9975 19.4377 28.0247 19.5365 28.0703 19.6272C28.1159 19.7179 28.1789 19.7987 28.2558 19.865C28.3326 19.9314 28.4217 19.9819 28.5181 20.0138C28.6145 20.0457 28.7162 20.0583 28.8174 20.0508C28.9187 20.0434 29.0174 20.0161 29.1081 19.9705L29.5187 19.7637L29.7767 20.4534C29.8154 20.5565 29.8756 20.6502 29.9533 20.7281L31.4988 22.2736C31.5833 22.3579 31.6861 22.4214 31.7992 22.4593L37.1179 24.2493C37.1299 24.2923 37.14 24.318 37.1526 24.3715C37.2048 24.5936 37.2561 24.8912 37.3005 25.1835C37.1335 25.3092 36.8887 25.4128 36.5534 25.4809C36.0925 25.5744 35.5111 25.591 34.9536 25.591H31.4551C30.7119 25.591 29.8844 25.8066 29.1806 26.0076C28.684 26.1495 28.4965 26.2199 28.2901 26.2914C24.8568 24.4218 24.8571 22.8769 23.2898 21.6096C21.0376 19.7881 19.5462 20.3439 18.5975 20.2512C18.597 20.2512 18.5965 20.2512 18.596 20.2512C18.3486 20.2272 17.178 19.8414 16.889 19.6837C16.885 19.6817 16.8809 19.6796 16.8769 19.6777L14.133 18.2423C12.4835 17.3432 11.3124 15.5094 10.3175 13.6375C9.29257 11.7075 7.11658 9.10699 4.15512 8.01543C4.37906 7.56445 4.62196 7.1136 4.88864 6.66914C5.12781 6.27044 5.61668 5.64847 6.21681 4.98629ZM3.5167 9.43114C5.98533 10.3128 8.08494 12.7272 8.95314 14.362C9.98137 16.2967 11.258 18.4351 13.3935 19.5992C13.3975 19.6012 13.4015 19.6032 13.4055 19.6052L16.1494 21.0406H16.1509C16.7598 21.3726 17.6774 21.7143 18.448 21.7892C19.9812 21.9383 20.3878 21.2495 22.3179 22.8109C22.3184 22.8109 22.3189 22.8109 22.3194 22.8109C23.2903 23.596 23.7511 25.7106 27.8252 27.8233C27.9201 27.8722 28.024 27.9009 28.1305 27.9077C28.237 27.9144 28.3438 27.8991 28.444 27.8625C28.444 27.8625 28.9558 27.6781 29.6047 27.4927C30.2535 27.3074 31.0623 27.1366 31.4551 27.1366H34.9536C35.5328 27.1366 36.2016 27.1301 36.8613 26.9962C37.0386 26.9602 37.2182 26.9114 37.3956 26.8513C37.2686 27.419 36.9137 27.7708 36.4025 28.0708C35.7571 28.4495 34.8771 28.6378 34.3001 28.6851C34.2849 28.6861 34.2698 28.6877 34.2548 28.6896L28.9255 29.4503C27.5753 29.4451 26.0845 29.0739 24.9516 28.3425C24.9324 28.3306 24.9128 28.3195 24.8927 28.3093L7.23105 18.9834C5.18059 17.9011 3.40832 16.376 1.98175 14.5521C2.0515 14.1697 2.47438 11.9526 3.5167 9.43114Z" fill="white"/>
</svg>
