<svg width="20" height="16" viewBox="0 0 20 16" fill="none" xmlns="http://www.w3.org/2000/svg">
<path d="M5.18827 0.000170521C5.14921 0.00129484 5.11051 0.00813833 5.07343 0.0204828C4.36719 0.255894 3.66492 0.794619 3.04921 1.37047C2.98002 1.43518 2.91787 1.50063 2.85156 1.56578C2.80526 1.59564 2.76563 1.63473 2.73515 1.68062C2.26404 2.15692 1.87624 2.62925 1.65702 2.99467C0.404566 5.08208 0.00546216 7.53446 0.00546216 7.53447C-0.00343543 7.58775 -0.00144634 7.64229 0.0113095 7.69479C0.0240652 7.74729 0.0473234 7.79666 0.0796809 7.83993C0.0805693 7.84113 0.0819167 7.8419 0.0828059 7.84306C0.0994364 7.86499 0.118286 7.88515 0.139056 7.90321C0.956758 8.9727 1.9907 9.85877 3.18202 10.4876L12.3242 15.3141C13.0687 15.7851 13.9659 16 14.8 16C14.8188 16 14.8376 15.9987 14.8562 15.9961L17.6562 15.5961L17.6328 15.5984C18.0221 15.5665 18.5662 15.4641 19.0601 15.1742C19.5541 14.8844 20 14.3458 20 13.6C20.0001 13.5872 19.9996 13.5745 19.9984 13.5617C19.9984 13.5617 19.9677 13.2422 19.9164 12.8969C19.8907 12.7242 19.8601 12.5447 19.8226 12.3852C19.8039 12.3054 19.7833 12.2316 19.757 12.1586C19.7308 12.0857 19.7135 12.016 19.6203 11.9141C19.5744 11.8643 19.5166 11.8269 19.4523 11.8055L16.6164 10.8508L15.9437 10.1782L15.8109 9.82272L16.0523 9.70163C16.1337 9.66181 16.1992 9.59554 16.238 9.51366C16.2768 9.43178 16.2867 9.33915 16.266 9.25094C16.2453 9.16272 16.1953 9.08414 16.1241 9.02806C16.0529 8.97199 15.9648 8.94174 15.8742 8.94226C15.8114 8.94273 15.7496 8.95799 15.6937 8.98679L15.5281 9.0696L15.318 8.50945L15.4641 8.44774C15.5515 8.41226 15.6236 8.347 15.6676 8.2635C15.7116 8.18 15.7246 8.08363 15.7044 7.99144C15.6842 7.89925 15.6321 7.81717 15.5572 7.75971C15.4824 7.70224 15.3896 7.6731 15.2953 7.67743C15.2457 7.67962 15.197 7.69101 15.1516 7.71103L15.0367 7.75946L14.8055 7.14228L14.9109 7.104C15.0001 7.07319 15.0755 7.01187 15.1238 6.93087C15.1721 6.84986 15.1903 6.75438 15.1751 6.6613C15.1598 6.56821 15.1122 6.4835 15.0406 6.42213C14.9689 6.36076 14.8779 6.32667 14.7836 6.32588C14.7342 6.32549 14.6852 6.33423 14.6391 6.35167L14.5242 6.39307L14.2906 5.7712L14.4351 5.71886C14.5243 5.68805 14.5997 5.62673 14.648 5.54572C14.6964 5.46472 14.7145 5.36924 14.6993 5.27616C14.684 5.18307 14.6364 5.09836 14.5648 5.03699C14.4931 4.97561 14.4021 4.94153 14.3078 4.94074C14.2582 4.94025 14.2089 4.94899 14.1625 4.96652L14.0101 5.02199L13.7703 4.38215C13.7715 4.35524 13.7699 4.32828 13.7656 4.30169C13.7656 4.30169 13.5765 3.11054 13.9625 1.78687C14.1212 1.24249 13.6385 0.751665 13.1062 0.809537C11.6897 0.9628 9.86562 1.62359 9.86562 1.62359C9.7707 1.65737 9.69202 1.72573 9.6453 1.81499L8.96484 3.11654C8.61277 3.18961 7.98662 3.13432 7.4078 2.91889C6.75063 2.6743 6.1629 2.24067 5.95937 1.82437C5.72122 1.3372 5.59999 1.14562 5.59999 0.400166C5.60001 0.346639 5.58928 0.293652 5.56845 0.244345C5.54762 0.195038 5.5171 0.150413 5.47871 0.113114C5.44032 0.0758146 5.39483 0.0465996 5.34494 0.0271993C5.29505 0.00779893 5.24178 -0.00139217 5.18827 0.000170521ZM4.87968 1.01969C4.95516 1.47137 5.07667 1.84054 5.24062 2.17593C5.59268 2.89601 6.34488 3.37708 7.1289 3.66888C7.30787 3.73549 7.48903 3.79059 7.66952 3.83685C7.55596 3.86976 7.44232 3.90251 7.3289 3.92513C6.73252 4.04408 6.1559 4.03037 5.52031 3.72826C4.93877 3.45184 4.29591 2.9118 3.59765 1.95327C4.01458 1.56361 4.46437 1.24919 4.87968 1.01969ZM13.1883 1.60562C13.0204 2.19902 12.9539 2.76156 12.9328 3.22982C12.4954 2.98206 11.9465 2.87476 11.4008 2.82748C11.3167 2.8202 11.2333 2.82141 11.1492 2.81733C11.1195 2.81076 11.0891 2.80762 11.0586 2.80795C11.0412 2.80795 11.0244 2.81157 11.007 2.81186C10.6583 2.8023 10.3193 2.81879 9.99999 2.86264L10.2781 2.3314C10.4968 2.25599 12.0341 1.73145 13.1883 1.60562ZM3.03046 2.53452C3.75654 3.50642 4.46718 4.11335 5.17734 4.4509C5.98145 4.83312 6.77172 4.85179 7.48515 4.7095C8.88355 4.43058 10.0605 3.64482 11 3.61341C11.1112 3.61573 11.2228 3.61489 11.332 3.62435C12.0575 3.68719 12.6699 3.94054 12.8508 4.20716L13.2586 5.29386L12.9344 5.41105C12.885 5.42895 12.8396 5.45641 12.8008 5.49185C12.762 5.5273 12.7306 5.57003 12.7083 5.61762C12.686 5.66521 12.6734 5.71672 12.671 5.76921C12.6686 5.8217 12.6766 5.87415 12.6945 5.92354C12.7124 5.97294 12.7399 6.01833 12.7753 6.05712C12.8108 6.09591 12.8535 6.12734 12.9011 6.14961C12.9487 6.17188 13.0002 6.18456 13.0527 6.18692C13.1052 6.18929 13.1576 6.18129 13.207 6.16339L13.5391 6.04307L13.7726 6.66494L13.4109 6.79619C13.3607 6.81338 13.3143 6.8404 13.2746 6.87568C13.2349 6.91097 13.2027 6.9538 13.1797 7.00169C13.1567 7.04958 13.1435 7.10157 13.1408 7.15461C13.1382 7.20766 13.1461 7.26071 13.1641 7.31066C13.1822 7.36061 13.21 7.40647 13.246 7.44556C13.2819 7.48465 13.3253 7.51618 13.3736 7.53832C13.4219 7.56047 13.4741 7.57277 13.5272 7.57452C13.5803 7.57628 13.6332 7.56744 13.6828 7.54853L14.0531 7.41415L14.3 8.07274L14.0047 8.19774C13.9544 8.21692 13.9086 8.24603 13.8699 8.28333C13.8311 8.32064 13.8003 8.36537 13.7793 8.41485C13.7582 8.46433 13.7473 8.51755 13.7473 8.57132C13.7473 8.6251 13.7581 8.67832 13.7792 8.72782C13.8002 8.77731 13.8309 8.82206 13.8697 8.85939C13.9084 8.89672 13.9542 8.92587 14.0044 8.94508C14.0546 8.9643 14.1082 8.97319 14.162 8.97123C14.2157 8.96927 14.2685 8.9565 14.3172 8.93367L14.5812 8.82195L14.8094 9.43054L14.5203 9.57585C14.4734 9.59944 14.4315 9.63204 14.3972 9.67181C14.3628 9.71157 14.3366 9.75771 14.3201 9.80759C14.3036 9.85747 14.2971 9.91011 14.3009 9.96252C14.3048 10.0149 14.3189 10.0661 14.3425 10.113C14.3661 10.1599 14.3987 10.2018 14.4385 10.2361C14.4782 10.2704 14.5244 10.2966 14.5743 10.3131C14.6242 10.3296 14.6768 10.3361 14.7292 10.3323C14.7816 10.3284 14.8327 10.3143 14.8797 10.2907L15.0922 10.1837L15.2258 10.5407C15.2458 10.594 15.2769 10.6425 15.3172 10.6829L16.1172 11.4829C16.1609 11.5265 16.2141 11.5593 16.2726 11.579L19.0258 12.5055C19.032 12.5278 19.0372 12.5411 19.0437 12.5688C19.0708 12.6837 19.0973 12.8378 19.1203 12.9891C19.0339 13.0542 18.9071 13.1078 18.7336 13.143C18.495 13.1914 18.194 13.2 17.9055 13.2H16.0945C15.7098 13.2 15.2815 13.3116 14.9172 13.4157C14.6601 13.4891 14.5631 13.5256 14.4562 13.5625C12.6791 12.5948 12.6792 11.7951 11.868 11.1391C10.7022 10.1963 9.93012 10.484 9.43905 10.436C9.43879 10.436 9.43853 10.436 9.43827 10.436C9.31021 10.4236 8.70428 10.2239 8.55468 10.1423C8.55261 10.1412 8.55052 10.1401 8.54843 10.1391L7.12812 9.39616C6.2743 8.93073 5.66808 7.98152 5.15312 7.0126C4.62256 6.01358 3.49621 4.66749 1.96327 4.10247C2.07919 3.86903 2.20492 3.63566 2.34296 3.4056C2.46677 3.19923 2.71982 2.87728 3.03046 2.53452ZM1.63281 4.83528C2.91064 5.29164 3.99746 6.54137 4.44687 7.38759C4.97911 8.38904 5.63993 9.49594 6.7453 10.0985C6.74738 10.0996 6.74946 10.1006 6.75155 10.1016L8.17187 10.8446H8.17265C8.48785 11.0165 8.96281 11.1933 9.36171 11.2321C10.1553 11.3093 10.3658 10.9528 11.3648 11.761C11.3651 11.761 11.3654 11.761 11.3656 11.761C11.8682 12.1674 12.1067 13.2619 14.2156 14.3555C14.2647 14.3808 14.3185 14.3957 14.3736 14.3992C14.4288 14.4027 14.484 14.3947 14.5359 14.3758C14.5359 14.3758 14.8008 14.2803 15.1367 14.1844C15.4726 14.0885 15.8912 14 16.0945 14H17.9055C18.2053 14 18.5515 13.9967 18.893 13.9274C18.9847 13.9088 19.0777 13.8835 19.1695 13.8524C19.1038 14.1462 18.9201 14.3283 18.6555 14.4836C18.3214 14.6797 17.8659 14.7771 17.5672 14.8016C17.5593 14.8021 17.5515 14.8029 17.5437 14.8039L14.7851 15.1977C14.0862 15.195 13.3146 15.0028 12.7281 14.6242C12.7182 14.6181 12.708 14.6123 12.6976 14.607L3.55546 9.77975C2.49408 9.21955 1.57671 8.43009 0.838275 7.48603C0.874376 7.28804 1.09327 6.14044 1.63281 4.83528Z" fill="white"/>
</svg>
