<svg width="43" height="38" viewBox="0 0 43 38" fill="none" xmlns="http://www.w3.org/2000/svg">
<path d="M1.51282 35.5589H4.24833V0H11.5214V35.5589H13.2909V14.0445H20.564V35.5589H22.3416V6.37944H29.6066V35.5589H31.4573V0H38.7303V35.5589H41.7824C42.4561 35.5589 43 36.1041 43 36.7794C43 37.4548 42.4561 38 41.7824 38H36.2952V2.44111H33.8925V38H27.1714V8.82056H24.7687V38H18.1207V16.4857H15.7261V38H9.07808V2.44111H6.67538V38H1.5047C0.830971 38 0.287117 37.4548 0.287117 36.7794C0.287117 36.1041 0.839088 35.5589 1.51282 35.5589Z" fill="#828282"/>
</svg>
