<svg width="50" height="50" viewBox="0 0 50 50" fill="none" xmlns="http://www.w3.org/2000/svg">
<path d="M18.4443 9C13.2316 9 8.98975 13.2418 8.98975 18.4545V31.5455C8.98975 36.7582 13.2316 41 18.4443 41H31.5352C36.7479 41 40.9897 36.7582 40.9897 31.5455V18.4545C40.9897 13.2418 36.7479 9 31.5352 9H18.4443ZM18.4443 10.4545H31.5352C35.9617 10.4545 39.5352 14.028 39.5352 18.4545V31.5455C39.5352 35.972 35.9617 39.5455 31.5352 39.5455H18.4443C14.0178 39.5455 10.4443 35.972 10.4443 31.5455V18.4545C10.4443 14.028 14.0178 10.4545 18.4443 10.4545ZM33.717 14.8182C33.3312 14.8182 32.9613 14.9714 32.6885 15.2442C32.4157 15.517 32.2625 15.887 32.2625 16.2727C32.2625 16.6585 32.4157 17.0285 32.6885 17.3012C32.9613 17.574 33.3312 17.7273 33.717 17.7273C34.1028 17.7273 34.4728 17.574 34.7455 17.3012C35.0183 17.0285 35.1716 16.6585 35.1716 16.2727C35.1716 15.887 35.0183 15.517 34.7455 15.2442C34.4728 14.9714 34.1028 14.8182 33.717 14.8182ZM24.9897 17C20.5801 17 16.9897 20.5903 16.9897 25C16.9897 29.4097 20.5801 33 24.9897 33C29.3994 33 32.9897 29.4097 32.9897 25C32.9897 20.5903 29.3994 17 24.9897 17ZM24.9897 18.4545C28.6133 18.4545 31.5352 21.3764 31.5352 25C31.5352 28.6236 28.6133 31.5455 24.9897 31.5455C21.3662 31.5455 18.4443 28.6236 18.4443 25C18.4443 21.3764 21.3662 18.4545 24.9897 18.4545Z" fill="#00ABA7"/>
</svg>
