<svg width="50" height="50" viewBox="0 0 50 50" fill="none" xmlns="http://www.w3.org/2000/svg">
<path d="M12.7993 9C10.7044 9 8.98975 10.7147 8.98975 12.8095V37.1905C8.98975 39.2853 10.7044 41 12.7993 41H37.1802C39.2751 41 40.9897 39.2853 40.9897 37.1905V12.8095C40.9897 10.7147 39.2751 9 37.1802 9H12.7993ZM12.7993 10.5238H37.1802C38.4514 10.5238 39.4659 11.5383 39.4659 12.8095V37.1905C39.4659 38.4617 38.4514 39.4762 37.1802 39.4762H12.7993C11.528 39.4762 10.5136 38.4617 10.5136 37.1905V12.8095C10.5136 11.5383 11.528 10.5238 12.7993 10.5238ZM16.6088 14.3423C15.7743 14.3423 15.0234 14.5917 14.4674 15.0595C13.9114 15.5274 13.5701 16.2263 13.5701 16.9747C13.5701 18.3973 14.8041 19.5064 16.3737 19.6161C16.3747 19.6166 16.3757 19.6171 16.3767 19.6176C16.4514 19.6431 16.5298 19.6566 16.6088 19.6577C18.3406 19.6577 19.6475 18.4446 19.6475 16.9747C19.6473 16.9613 19.6468 16.9479 19.646 16.9345C19.5685 15.4867 18.2777 14.3423 16.6088 14.3423ZM16.6088 15.8482C17.6695 15.8482 18.0884 16.3219 18.1341 16.994C18.1248 17.6464 17.7212 18.1518 16.6088 18.1518C15.5532 18.1518 15.0761 17.6112 15.0761 16.9747C15.0761 16.6564 15.1922 16.4166 15.4362 16.2113C15.6802 16.006 16.0718 15.8482 16.6088 15.8482ZM14.3231 20.4286C14.121 20.4286 13.9272 20.5089 13.7844 20.6518C13.6415 20.7946 13.5612 20.9884 13.5612 21.1905V35.6667C13.5612 35.8687 13.6415 36.0625 13.7844 36.2054C13.9272 36.3483 14.121 36.4286 14.3231 36.4286H18.8945C19.0966 36.4286 19.2904 36.3483 19.4332 36.2054C19.5761 36.0625 19.6564 35.8687 19.6564 35.6667V31.1979V21.1905C19.6564 20.9884 19.5761 20.7946 19.4332 20.6518C19.2904 20.5089 19.0966 20.4286 18.8945 20.4286H14.3231ZM21.1802 20.4286C20.9782 20.4286 20.7844 20.5089 20.6415 20.6518C20.4986 20.7946 20.4183 20.9884 20.4183 21.1905V35.6667C20.4183 35.8687 20.4986 36.0625 20.6415 36.2054C20.7844 36.3483 20.9782 36.4286 21.1802 36.4286H25.7517C25.9537 36.4286 26.1475 36.3483 26.2904 36.2054C26.4333 36.0625 26.5135 35.8687 26.5136 35.6667V28.0476C26.5136 27.4155 26.686 26.7867 26.9897 26.375C27.2934 25.9633 27.6766 25.7162 28.4049 25.7292C29.156 25.7421 29.5536 25.9994 29.8543 26.4033C30.1551 26.8072 30.3231 27.4127 30.3231 28.0476V35.6667C30.3231 35.8687 30.4034 36.0625 30.5463 36.2054C30.6891 36.3483 30.8829 36.4286 31.085 36.4286H35.6564C35.8585 36.4286 36.0523 36.3483 36.1951 36.2054C36.338 36.0625 36.4183 35.8687 36.4183 35.6667V27.4851C36.4183 25.2287 35.75 23.4414 34.6043 22.2321C33.4587 21.0229 31.8653 20.4286 30.1802 20.4286C28.5787 20.4286 27.3599 20.9656 26.5136 21.5134V21.1905C26.5135 20.9884 26.4333 20.7946 26.2904 20.6518C26.1475 20.5089 25.9537 20.4286 25.7517 20.4286H21.1802ZM15.085 21.9524H18.1326V31.1979V34.9048H15.085V21.9524ZM21.9421 21.9524H24.9897V23.1414C24.9898 23.3011 25.0401 23.4568 25.1334 23.5865C25.2268 23.7161 25.3585 23.8131 25.5101 23.8638C25.6616 23.9145 25.8252 23.9162 25.9778 23.8688C26.1303 23.8214 26.2641 23.7273 26.3603 23.5997C26.3603 23.5997 27.5568 21.9524 30.1802 21.9524C31.5161 21.9524 32.6616 22.3963 33.4987 23.2798C34.3357 24.1633 34.8945 25.5244 34.8945 27.4851V34.9048H31.8469V28.0476C31.8469 27.1587 31.6339 26.2397 31.0775 25.4926C30.5212 24.7454 29.5854 24.2252 28.4317 24.2054C27.2721 24.1848 26.3212 24.7158 25.7636 25.4717C25.2059 26.2277 24.9897 27.1559 24.9897 28.0476V34.9048H21.9421V21.9524Z" fill="#00ABA7"/>
</svg>
