<svg width="50" height="50" viewBox="0 0 50 50" fill="none" xmlns="http://www.w3.org/2000/svg">
<path fill-rule="evenodd" clip-rule="evenodd" d="M37.1802 10.5238H12.7993C11.5369 10.5238 10.5136 11.5472 10.5136 12.8095V37.1905C10.5136 38.4528 11.5369 39.4762 12.7993 39.4762H37.1802C38.4426 39.4762 39.4659 38.4528 39.4659 37.1905V12.8095C39.4659 11.5472 38.4426 10.5238 37.1802 10.5238ZM12.7993 9C10.6953 9 8.98975 10.7056 8.98975 12.8095V37.1905C8.98975 39.2944 10.6953 41 12.7993 41H37.1802C39.2842 41 40.9897 39.2944 40.9897 37.1905V12.8095C40.9897 10.7056 39.2842 9 37.1802 9H12.7993Z" fill="#00ABA7"/>
<path d="M28.3508 17.381C26.0639 17.381 24.199 19.2531 24.199 21.5427C24.199 21.5592 24.205 21.5745 24.2052 21.591C21.7834 21.2681 19.6405 20.0699 18.1685 18.2602C18.1037 18.1805 18.0204 18.1177 17.926 18.0772C17.8315 18.0368 17.7287 18.0198 17.6262 18.0279C17.5238 18.0359 17.4248 18.0687 17.3378 18.1234C17.2509 18.1781 17.1785 18.2532 17.1269 18.342C16.7695 18.9577 16.5663 19.6751 16.5663 20.434C16.5663 21.1102 16.7539 21.7396 17.0413 22.3065C16.8989 22.3367 16.7711 22.4149 16.6795 22.528C16.5878 22.6411 16.5378 22.7822 16.5378 22.9278V22.9725C16.5378 24.2033 17.1118 25.2695 17.9639 26.033C17.8781 26.1153 17.8171 26.2202 17.7879 26.3355C17.7588 26.4508 17.7626 26.572 17.799 26.6853C18.1535 27.7909 18.9791 28.6578 20.015 29.1456C19.1868 29.5342 18.3001 29.8127 17.3215 29.8127C17.0607 29.8127 16.8072 29.7992 16.5589 29.7693C16.4162 29.7519 16.2717 29.7834 16.1492 29.8588C16.0267 29.9341 15.9335 30.0488 15.8846 30.184C15.8358 30.3193 15.8343 30.4671 15.8804 30.6033C15.9266 30.7395 16.0175 30.856 16.1385 30.9338C17.7917 31.9983 19.7622 32.619 21.8726 32.619C25.283 32.619 27.9779 31.1831 29.7794 29.1344C31.5809 27.0858 32.5162 24.4422 32.5162 21.9519C32.5162 21.8765 32.5129 21.804 32.5113 21.7299C33.13 21.2322 33.7121 20.6832 34.1531 20.0211C34.2252 19.912 34.2619 19.7833 34.2581 19.6526C34.2544 19.5219 34.2103 19.3955 34.132 19.2908C34.0538 19.186 33.945 19.108 33.8208 19.0674C33.6965 19.0267 33.5627 19.0255 33.4376 19.0637C33.5412 18.8623 33.6863 18.6864 33.7563 18.4673C33.7957 18.3444 33.7967 18.2125 33.7593 18.0891C33.7218 17.9657 33.6477 17.8566 33.5467 17.7763C33.4457 17.6961 33.3227 17.6485 33.194 17.6399C33.0653 17.6313 32.937 17.6621 32.8263 17.7282C32.2714 18.058 31.649 18.2761 31.0033 18.4276C30.2775 17.8075 29.3747 17.381 28.3508 17.381ZM28.3508 18.6508C29.1834 18.6508 29.9284 19.0009 30.454 19.5635C30.5277 19.6421 30.6203 19.7007 30.7229 19.7336C30.8255 19.7666 30.9348 19.7729 31.0405 19.752C31.1388 19.7326 31.2177 19.6697 31.3146 19.6466C31.3003 19.6555 31.2918 19.6714 31.2774 19.6801C31.1575 19.752 31.0647 19.8616 31.0134 19.9917C30.9621 20.1219 30.9553 20.2653 30.9938 20.3997C31.0324 20.5341 31.1143 20.6521 31.2268 20.7352C31.3393 20.8183 31.4761 20.862 31.6159 20.8594C31.5712 20.8936 31.5449 20.9479 31.4994 20.9809C31.4143 21.0423 31.3458 21.1238 31.2999 21.2182C31.254 21.3125 31.2322 21.4168 31.2365 21.5216C31.2425 21.6647 31.2464 21.8087 31.2464 21.9519C31.2464 24.1206 30.4123 26.4934 28.827 28.2961C27.2417 30.0989 24.9314 31.3492 21.8726 31.3492C20.8205 31.3492 19.831 31.1369 18.889 30.816C20.0617 30.5681 21.1717 30.1536 22.081 29.4382C22.1837 29.3572 22.2589 29.2464 22.2963 29.1209C22.3337 28.9955 22.3313 28.8616 22.2897 28.7375C22.248 28.6134 22.169 28.5053 22.0635 28.4278C21.958 28.3503 21.8311 28.3074 21.7003 28.3048C20.8007 28.2885 20.1068 27.7787 19.5896 27.1193C19.7809 27.0945 19.979 27.0928 20.1613 27.0424C20.2992 27.0046 20.4204 26.9214 20.5051 26.8062C20.5898 26.691 20.6332 26.5506 20.6282 26.4077C20.6232 26.2648 20.57 26.1277 20.4774 26.0188C20.3848 25.9098 20.2582 25.8353 20.1179 25.8073C19.0693 25.5952 18.25 24.8051 17.9503 23.7835C18.2206 23.8488 18.4577 23.995 18.7452 24.0042C18.8829 24.0084 19.0182 23.9677 19.1308 23.8883C19.2433 23.8088 19.327 23.6949 19.3691 23.5637C19.4113 23.4326 19.4096 23.2912 19.3644 23.1611C19.3192 23.0309 19.2328 22.919 19.1184 22.8423C18.3443 22.3236 17.8362 21.4424 17.8362 20.434C17.8362 20.2261 17.9476 20.0607 17.9887 19.8661C19.792 21.6553 22.1914 22.8431 24.8935 22.9799C24.9918 22.9848 25.09 22.9668 25.1801 22.9273C25.2703 22.8878 25.3501 22.8278 25.4131 22.7522C25.4762 22.6765 25.5207 22.5872 25.5433 22.4914C25.5659 22.3955 25.5659 22.2957 25.5433 22.1999C25.4938 21.9902 25.4689 21.7712 25.4689 21.5427C25.4689 19.9376 26.752 18.6508 28.3508 18.6508Z" fill="#00ABA7"/>
</svg>
